<svg width="30" height="30" viewBox="0 0 30 30" fill="none" xmlns="http://www.w3.org/2000/svg">
<path d="M15 30C16.0322 30.0012 17.0391 29.7129 17.8808 29.1752C18.7225 28.6376 19.3572 27.8773 19.6967 27H10.3033C10.6428 27.8773 11.2775 28.6376 12.1192 29.1752C12.9609 29.7129 13.9678 30.0012 15 30ZM26.6667 18.879V12C26.6667 7.1745 23.025 3.1095 18.0917 1.887C17.6033 0.78 16.41 0 15 0C13.59 0 12.3967 0.78 11.9083 1.887C6.975 3.111 3.33333 7.1745 3.33333 12V18.879L0.488335 21.4395C0.333264 21.5786 0.210284 21.7438 0.126476 21.9259C0.0426669 22.1079 -0.000315748 22.303 1.74612e-06 22.5V24C1.74612e-06 24.3978 0.175596 24.7794 0.488157 25.0607C0.800718 25.342 1.22464 25.5 1.66667 25.5H28.3333C28.7754 25.5 29.1993 25.342 29.5118 25.0607C29.8244 24.7794 30 24.3978 30 24V22.5C30.0003 22.303 29.9573 22.1079 29.8735 21.9259C29.7897 21.7438 29.6667 21.5786 29.5117 21.4395L26.6667 18.879Z" fill="#0FA958"/>
</svg>
