<svg width="27" height="30" viewBox="0 0 27 30" fill="none" xmlns="http://www.w3.org/2000/svg">
<path fill-rule="evenodd" clip-rule="evenodd" d="M1.758 1.758C-1.78814e-07 3.5145 0 6.3435 0 12V18C0 23.6565 -1.78814e-07 26.4855 1.758 28.242C3.5145 30 6.3435 30 12 30H15C20.6565 30 23.4855 30 25.242 28.242C27 26.4855 27 23.6565 27 18V12C27 6.3435 27 3.5145 25.242 1.758C23.4855 -1.78814e-07 20.6565 0 15 0H12C6.3435 0 3.5145 -1.78814e-07 1.758 1.758ZM7.5 10.875C7.20163 10.875 6.91548 10.9935 6.7045 11.2045C6.49353 11.4155 6.375 11.7016 6.375 12C6.375 12.2984 6.49353 12.5845 6.7045 12.7955C6.91548 13.0065 7.20163 13.125 7.5 13.125H19.5C19.7984 13.125 20.0845 13.0065 20.2955 12.7955C20.5065 12.5845 20.625 12.2984 20.625 12C20.625 11.7016 20.5065 11.4155 20.2955 11.2045C20.0845 10.9935 19.7984 10.875 19.5 10.875H7.5ZM7.5 16.875C7.20163 16.875 6.91548 16.9935 6.7045 17.2045C6.49353 17.4155 6.375 17.7016 6.375 18C6.375 18.2984 6.49353 18.5845 6.7045 18.7955C6.91548 19.0065 7.20163 19.125 7.5 19.125H15C15.2984 19.125 15.5845 19.0065 15.7955 18.7955C16.0065 18.5845 16.125 18.2984 16.125 18C16.125 17.7016 16.0065 17.4155 15.7955 17.2045C15.5845 16.9935 15.2984 16.875 15 16.875H7.5Z" fill="#0FA958"/>
</svg>
