<svg width="30" height="30" viewBox="0 0 30 30" fill="none" xmlns="http://www.w3.org/2000/svg">
<path d="M17.4167 0.836128C16.7404 0.29615 15.8844 0 15 0C14.1156 0 13.2596 0.29615 12.5833 0.836128L1.33333 9.82845C0.915766 10.1619 0.580098 10.5777 0.349796 11.0468C0.119493 11.5159 0.000112881 12.0269 0 12.5443V27.2368C0 28.7621 1.30667 30 2.91667 30H7.91667C8.69021 30 9.43208 29.7089 9.97906 29.1907C10.526 28.6725 10.8333 27.9696 10.8333 27.2368V20.9161C10.8333 19.8424 11.7367 18.9708 12.8617 18.9424H17.1383C17.6813 18.9559 18.1972 19.1699 18.576 19.5386C18.9549 19.9072 19.1669 20.4015 19.1667 20.9161V27.2368C19.1667 28.7621 20.4733 30 22.0833 30H27.0833C27.8569 30 28.5987 29.7089 29.1457 29.1907C29.6927 28.6725 30 27.9696 30 27.2368V12.5427C29.9999 12.0254 29.8805 11.5143 29.6502 11.0452C29.4199 10.5761 29.0842 10.1603 28.6667 9.82688L17.4167 0.836128Z" fill="#0FA958"/>
</svg>
