<svg width="27" height="30" viewBox="0 0 27 30" fill="none" xmlns="http://www.w3.org/2000/svg">
<path d="M19.5 18C21.4327 18.0001 23.2907 18.7463 24.6867 20.083C26.0826 21.4197 26.9086 23.2436 26.9925 25.1745L27 25.5V27C27.0002 27.7569 26.7144 28.4858 26.1998 29.0408C25.6851 29.5958 24.9797 29.9357 24.225 29.9925L24 30H3C2.24314 30.0002 1.51415 29.7144 0.959178 29.1998C0.404206 28.6851 0.064265 27.9797 0.00750017 27.225L0 27V25.5C0.000111664 23.5673 0.746313 21.7093 2.08299 20.3133C3.41967 18.9174 5.24363 18.0914 7.1745 18.0075L7.5 18H19.5ZM13.5 0C15.4891 0 17.3968 0.790176 18.8033 2.1967C20.2098 3.60322 21 5.51088 21 7.5C21 9.48912 20.2098 11.3968 18.8033 12.8033C17.3968 14.2098 15.4891 15 13.5 15C11.5109 15 9.60322 14.2098 8.1967 12.8033C6.79018 11.3968 6 9.48912 6 7.5C6 5.51088 6.79018 3.60322 8.1967 2.1967C9.60322 0.790176 11.5109 0 13.5 0Z" fill="#0FA958"/>
</svg>
